<svg width="81" height="80" viewBox="0 0 81 80" fill="none" xmlns="http://www.w3.org/2000/svg">
<path d="M68.5 0H12.5C5.87258 0 0.5 5.37258 0.5 12V68C0.5 74.6274 5.87258 80 12.5 80H68.5C75.1274 80 80.5 74.6274 80.5 68V12C80.5 5.37258 75.1274 0 68.5 0Z" fill="#1877F2"/>
<path d="M56.0625 51.5625L57.8438 40H46.75V32.5C46.75 29.3438 48.2969 26.25 53.2656 26.25H58.3125V16.4062C58.3125 16.4062 53.7344 15.625 49.3594 15.625C40.2188 15.625 34.25 21.1563 34.25 31.1875V40H24.0938V51.5625H34.25V80H46.75V51.5625H56.0625Z" fill="white"/>
</svg>
